<svg width="24" height="24" viewBox="0 0 24 24" fill="none" xmlns="http://www.w3.org/2000/svg">
<path d="M15.7736 12.972L14.6506 11.8489C14.8006 11.0207 14.5643 10.2762 13.9419 9.61529C13.3195 8.95439 12.5557 8.69894 11.6506 8.84894L10.5275 7.72589C10.7531 7.62461 10.9846 7.54865 11.2217 7.49802C11.4589 7.44737 11.7185 7.42204 12.0006 7.42204C13.1352 7.42204 14.0983 7.81788 14.89 8.60954C15.6816 9.40121 16.0775 10.3643 16.0775 11.4989C16.0775 11.781 16.0521 12.0438 16.0015 12.2874C15.9509 12.531 15.8749 12.7592 15.7736 12.972ZM18.9544 16.0835L17.8506 15.0489C18.4839 14.5656 19.0464 14.0364 19.5381 13.4614C20.0297 12.8864 20.4506 12.2323 20.8006 11.4989C19.9672 9.81561 18.7714 8.47811 17.2131 7.48644C15.6547 6.49478 13.9172 5.99894 12.0006 5.99894C11.5172 5.99894 11.0422 6.03228 10.5756 6.09894C10.1089 6.16561 9.65056 6.26561 9.20056 6.39894L8.03521 5.23359C8.66726 4.98231 9.31277 4.79705 9.97174 4.67782C10.6307 4.55859 11.307 4.49897 12.0006 4.49897C14.3441 4.49897 16.4576 5.14512 18.3409 6.43742C20.2242 7.72974 21.598 9.41691 22.4621 11.4989C22.0915 12.3925 21.613 13.2265 21.0265 14.0008C20.44 14.7752 19.7493 15.4694 18.9544 16.0835ZM19.7621 21.8681L15.716 17.8527C15.2031 18.0425 14.6349 18.1976 14.0112 18.3181C13.3874 18.4387 12.7172 18.4989 12.0006 18.4989C9.65058 18.4989 7.53713 17.8528 5.66021 16.5605C3.7833 15.2682 2.40958 13.581 1.53906 11.4989C1.9083 10.6156 2.38522 9.79157 2.96984 9.02682C3.55445 8.26209 4.19805 7.59895 4.90061 7.03742L2.13136 4.23742L3.18521 3.18359L20.8159 20.8143L19.7621 21.8681ZM5.95444 8.09122C5.42624 8.51174 4.91245 9.01719 4.41309 9.60759C3.91372 10.198 3.50955 10.8284 3.20056 11.4989C4.0339 13.1823 5.22973 14.5198 6.78806 15.5114C8.3464 16.5031 10.0839 16.9989 12.0006 16.9989C12.4557 16.9989 12.9089 16.9605 13.3602 16.8835C13.8115 16.8066 14.1942 16.7271 14.5083 16.6451L13.2429 15.3489C13.0724 15.4181 12.8749 15.4733 12.6506 15.5143C12.4262 15.5553 12.2095 15.5758 12.0006 15.5758C10.866 15.5758 9.90283 15.18 9.11116 14.3883C8.3195 13.5967 7.92366 12.6335 7.92366 11.4989C7.92366 11.2964 7.94418 11.0845 7.98521 10.8634C8.02625 10.6422 8.08137 10.44 8.15059 10.2566L5.95444 8.09122Z" fill="white"/>
</svg>
